# xmcd
#
# Track frame offsets: 
#        182
#        17410
#        32465
#        54430
#        82387
#        101172
#        117267
#        136720
#        149427
#        166147
#        179277
#        202780
#
# Disc length: 2882 seconds
#
# Revision: 0
# Processed by: cddbd v1.5.1PL0 Copyright (c) Steve Scherf et al.
# Submitted via: ExactAudioCopy v0.95a4
#
DISCID=970b400c
DTITLE=Cinemídia-Greatest Original Sound Tracks 1 - Cinemídia-Greatest
DTITLE=Original Sound Tracks 1
DYEAR=1900
DGENRE=Acid Punk
TTITLE0=Arthur's Theme-Christopher Cross
TTITLE1=02-Summer Breeze-Seals and Crofts
TTITLE2=03-Knockin'On Heaven's Door-Randy Crawford
TTITLE3=04-Silent Running-Mike and The Mechanics
TTITLE4=05-It Might Be You-Stephen Bishop
TTITLE5=06-Kokomo-Beach Boys
TTITLE6=07-Glory Of Love-Peter Cetera
TTITLE7=08-Feel Like Makin' Love-Roberta Flack
TTITLE8=09-Love Theme From St Elmo's FireFor Just A Moment]-David Fost
TTITLE8=er
TTITLE9=10-Stand By Me-Ben E King
TTITLE10=11-When A Man Loves A Woman-Bette Midler
TTITLE11=12-Cinema Paradiso-Ennio Morricone
EXTD=
EXTT0=
EXTT1=
EXTT2=
EXTT3=
EXTT4=
EXTT5=
EXTT6=
EXTT7=
EXTT8=
EXTT9=
EXTT10=
EXTT11=
PLAYORDER=
